<svg xmlns="http://www.w3.org/2000/svg" height="1024" preserveAspectRatio="none" style="display: block;" version="1.1" viewBox="0 0 2048 1152" width="1820">
<path d="M 0 0 L 2048 0 L 2048 1.01303 L 2048 434.427 L 2048 973.439 L 2048 1152 L 2.01436 1152 L 0 1152 L 0 0 z" fill="rgb(4,58,78)" transform="translate(0,0)"></path>
<path d="M 0 0 L 2048 0 L 2048 1.01303 L 2048 434.427 C 2001.37 424.548 1947.45 417.334 1900.1 410.057 C 1857.79 403.555 1808.19 395.184 1765.82 391.37 C 1765.78 395.806 1765.47 400.085 1765.18 404.502 C 1764.47 383.745 1765.3 360.646 1764.95 339.284 C 1768.77 339.412 1775 340.13 1778 338.251 C 1779.44 335.849 1779.06 334.457 1778.91 331.631 C 1776.69 328.303 1764.29 329.75 1759.75 329.247 C 1759.36 309.019 1761.54 275.423 1747.97 260.482 C 1748.07 249.972 1749.48 208.991 1746.38 201.692 C 1744.37 200.284 1744.78 200.789 1741.57 201.091 C 1737.95 205.58 1739.56 250.085 1739.25 259.968 C 1726.65 274.089 1725.85 310.714 1725.88 329.756 C 1720.67 329.625 1712.26 328.647 1708.14 330.954 C 1706.08 334.248 1706.59 332.735 1706.5 336.902 C 1708.97 340.973 1712.73 339.711 1717.18 339.421 C 1717.35 364.485 1718.42 394.073 1717.76 418.738 C 1716.31 416.311 1716.94 391.721 1716.96 387.192 C 1708.87 386.872 1692.93 384.34 1684.43 383.277 L 1620.04 375.356 C 1556.88 367.608 1493.6 360.855 1430.24 355.098 C 1238.75 338.123 1046.6 329.767 854.36 330.056 L 750.633 329.865 C 743.356 329.861 710.871 329.42 705.586 330.717 C 700.715 276.978 700.884 217.433 696.46 163.179 C 695.773 154.751 711.772 97.512 715.406 87.6766 L 705.102 83.0962 C 622.922 153.344 546.865 243.848 487.78 334.03 C 432.004 419.191 390.807 513.051 365.88 611.753 C 360.407 634.282 356.476 657.176 352.07 679.928 C 350.627 687.381 350.511 705.92 347.751 711.626 C 326.671 755.201 302.705 797.647 279.669 840.26 C 267.85 862.124 255.651 884.71 242.906 906.032 C 233.173 903.975 183.711 893.955 177.634 896.317 C 174.662 899.345 174.742 902.04 175.345 906.283 C 179.95 909.471 185.929 910.718 190.9 913.517 C 214.273 926.681 229.851 945.901 231.625 973.647 L 2.08279 974.046 C 2.3999 1033.36 2.37709 1092.68 2.01436 1152 L 0 1152 L 0 0 z" fill="#5F8F94" transform="translate(0,0)"></path>
<path d="M 0 0 L 2048 0 L 2048 1.01303 L 3.06742 0.922031 L 2.1191 373.454 C 122.644 356.753 243.829 345.222 365.341 338.892 C 391.825 337.426 418.318 336.152 444.82 335.069 C 457.047 334.581 475.849 333.402 487.78 334.03 C 432.004 419.191 390.807 513.051 365.88 611.753 C 360.407 634.282 356.476 657.176 352.07 679.928 C 350.627 687.381 350.511 705.92 347.751 711.626 C 326.671 755.201 302.705 797.647 279.669 840.26 C 267.85 862.124 255.651 884.71 242.906 906.032 C 233.173 903.975 183.711 893.955 177.634 896.317 C 174.662 899.345 174.742 902.04 175.345 906.283 C 179.95 909.471 185.929 910.718 190.9 913.517 C 214.273 926.681 229.851 945.901 231.625 973.647 L 2.08279 974.046 C 2.3999 1033.36 2.37709 1092.68 2.01436 1152 L 0 1152 L 0 0 z" fill="rgb(243,235,200)" transform="translate(0,0)"></path>
<path d="M 705.586 330.717 C 710.871 329.42 743.356 329.861 750.633 329.865 L 854.36 330.056 C 1046.6 329.767 1238.75 338.123 1430.24 355.098 C 1493.6 360.855 1556.88 367.608 1620.04 375.356 L 1684.43 383.277 C 1692.93 384.34 1708.87 386.872 1716.96 387.192 C 1716.94 391.721 1716.31 416.311 1717.76 418.738 L 1725.66 419.15 C 1732.1 418.957 1754.39 417.932 1759.13 420.119 C 1758.02 422.168 1755.39 422.387 1753.18 422.134 C 1742.95 423.165 1727.96 422.837 1717.32 422.815 L 1717.37 441.873 C 1709.35 441.736 1694.12 440.573 1687.72 444.188 C 1685.72 446.898 1686.08 445.586 1686.54 449.14 C 1692.1 456.322 1693.2 451.5 1699.55 461.883 C 1699.32 482.786 1698.97 504.763 1699.71 525.654 L 1668.1 525.904 C 1668.31 533.427 1671.1 551.675 1665.39 555.375 C 1667.2 560.871 1681.59 562.825 1682.75 584.763 L 1682.8 585.913 C 1716.51 585.1 1750.24 585.103 1783.95 585.923 C 1783.65 598.209 1783.72 706.08 1782.13 707.574 C 1781.09 708.558 1779.25 708.948 1777.89 709.369 C 1774.06 709.435 1769.52 710.071 1766.77 707.654 C 1762.85 707.759 1757.38 708.075 1753.58 707.925 C 1737.84 708.163 1721.68 708.945 1705.79 709.252 L 1706.05 590.346 L 1682.69 590.158 C 1683.02 629.775 1683.07 669.393 1682.85 709.01 C 1678.03 708.935 1668.75 707.462 1666.11 711.396 C 1666.1 714.988 1665.42 716.11 1667.22 718.46 C 1678.48 721.109 1679.24 727.453 1684.62 737.346 C 1689.09 739.319 1770.14 737.97 1783.09 738.344 L 1782.97 894.038 C 1782.97 913.177 1784.2 953.765 1782.67 971.572 C 1780.6 973.674 1781.74 973.205 1778.64 973.226 C 1776.48 970.877 1776.74 964.808 1776.79 961.419 C 1777.1 940.096 1777.1 918.787 1777.09 897.464 L 1777.05 743.303 C 1755.35 743.262 1733.65 743.451 1711.96 743.869 C 1711.93 771.007 1712.63 969.922 1710.94 972.127 L 1707.96 972.342 L 1706.79 971.264 C 1705.11 965.261 1706.31 921.648 1706.32 913.364 L 1706.43 743.666 L 1682.8 743.82 L 1682.85 890.726 C 1654.97 890.289 1627.09 890.202 1599.21 890.468 C 1599.26 883.505 1599.59 878.496 1595.59 872.528 C 1580.99 850.766 1552.69 841.951 1527.93 840.461 C 1527.26 834.336 1525.76 803.365 1523.81 800.732 C 1519.9 805.585 1519.19 832.762 1518.6 840.985 C 1497.1 841.202 1467.69 847.3 1451.66 862.983 C 1443.26 871.203 1443.56 879.299 1443.6 889.835 L 1344.6 890.107 C 1344.84 917.628 1344.83 945.151 1344.58 972.672 C 1305.61 972.107 1265.29 972.759 1226.19 972.772 L 993.893 972.772 C 947.579 972.803 889.736 974.544 844.382 972.313 C 847.894 956.314 850.445 935.293 852.878 918.742 C 847.25 917.839 841.213 917.24 835.524 916.574 L 833.667 932.838 C 822.534 932.477 811.177 932.696 800.022 932.788 C 802.63 922.489 803.404 919.14 809.432 910.543 C 771.806 911.234 732.957 910.736 695.302 910.611 C 692.12 902.747 689.179 891.994 686.668 883.674 C 752.786 880.124 813.786 897.835 876.021 916.406 C 858.031 872.558 837.762 830.521 820.187 785.362 C 782.423 687.781 752.345 587.398 730.227 485.128 C 718.846 433.294 708.958 383.768 705.586 330.717 z" fill="rgb(243,235,200)" transform="translate(0,0)"></path>
<path d="M 1711.45 590.552 C 1733.43 590.59 1755.63 590.461 1777.59 590.766 L 1777.89 709.369 C 1774.06 709.435 1769.52 710.071 1766.77 707.654 C 1762.85 707.759 1757.38 708.075 1753.58 707.925 L 1761.96 706.058 C 1745.01 705.156 1728.04 704.766 1711.07 704.888 L 1711.45 590.552 z" fill="rgb(4,58,78)" transform="translate(0,0)"></path>
<path d="M 1761.96 706.058 C 1765.13 706.054 1770.18 705.784 1772.97 706.734 C 1771.19 706.329 1770.96 707.434 1766.77 707.654 C 1762.85 707.759 1757.38 708.075 1753.58 707.925 L 1761.96 706.058 z" fill="rgb(155,173,164)" transform="translate(0,0)"></path>
<path d="M 1745.58 642.182 C 1747.21 643.514 1749.73 646.959 1751.14 648.747 C 1750.93 660.172 1752.37 678.302 1750.29 689.759 C 1750.03 691.148 1748.11 691.34 1746.29 691.981 C 1743.13 691.611 1742.51 691.55 1739.6 690.307 C 1738.32 684.186 1739.56 656.688 1739.34 648.995 C 1739.28 646.743 1743.62 643.736 1745.58 642.182 z" fill="rgb(243,235,200)" transform="translate(0,0)"></path>
<path d="M 1725.66 419.15 C 1732.1 418.957 1754.39 417.932 1759.13 420.119 C 1758.02 422.168 1755.39 422.387 1753.18 422.134 C 1746.36 421.134 1729.52 421.76 1721.34 421.649 L 1720.64 420.394 L 1720.09 421.268 L 1719.7 420.809 L 1725.66 419.15 z" fill="rgb(245,242,201)" transform="translate(0,0)"></path>
<path d="M 1405.9 410.395 C 1420.98 409.659 1457.49 419.876 1470.87 428.228 C 1475.53 431.136 1479.76 434.539 1484.01 438.135 C 1512.78 423.335 1547.47 427.922 1577.95 434.563 C 1581.1 435.25 1584.32 435.921 1587.2 437.414 L 1584.91 438.065 C 1551.34 432.749 1513.73 437.271 1482.64 451.14 C 1450.13 424.664 1442.42 424.765 1405.9 410.395 z" fill="rgb(4,58,78)" transform="translate(0,0)"></path>
<path d="M 1765.82 391.37 C 1808.19 395.184 1857.79 403.555 1900.1 410.057 C 1947.45 417.334 2001.37 424.548 2048 434.427 L 2048 973.439 C 1964.28 975.265 1877.29 973.078 1793.28 973.332 L 1793.52 829.741 C 1793.48 797.896 1792.47 762.199 1793.74 730.757 C 1798.31 723.586 1810.81 714.809 1806.43 709.06 C 1803.17 707.171 1797.62 707.855 1793.63 707.98 C 1793.86 665.081 1793.1 620.937 1794.1 578.257 C 1799.41 569.997 1805.32 561.812 1810.98 553.762 L 1811 525.968 L 1784.88 525.988 C 1784.76 505.743 1783.97 480.726 1785.43 460.415 C 1785.66 457.086 1793.29 453.052 1794.55 447.563 C 1793.97 444.355 1794.57 445.392 1792.54 443.053 C 1786.08 441.895 1772.17 442.064 1765.05 441.969 L 1765.18 404.502 C 1765.47 400.085 1765.78 395.806 1765.82 391.37 z" fill="rgb(243,235,200)" transform="translate(0,0)"></path>
<path d="M 480.183 375.636 C 528.944 392.85 597.699 439.611 632.229 477.777 C 617.273 599.844 613.741 723.04 621.681 845.763 C 623.479 870.872 626.105 909.523 631.309 934.013 C 601.994 934.174 566.284 934.147 537.083 932.092 C 508.493 891.126 450.88 842.175 408.697 816.371 C 402.231 812.415 390.049 804.376 383.326 802.284 L 382.73 803.698 C 386.247 809.973 409.721 823.588 417.342 828.523 C 459.639 858.336 498.415 891.523 530.782 932.159 C 493.522 932.14 446.684 928.676 409.197 926.081 C 403.082 913.324 392.094 890.412 384.351 879.071 C 388.384 895.083 392.34 909.759 397.825 925.322 C 390.072 925.002 379.682 923.595 371.777 922.742 C 330.063 743.889 386.656 529.901 480.183 375.636 z" fill="rgb(243,235,200)" transform="translate(0,0)"></path>
<path d="M 392.342 701.96 C 458.651 705.225 527.569 711.563 593.417 713.891 C 593.258 721.542 594.342 745.212 593.204 750.884 L 591.564 751.458 C 524.933 747.825 453.908 742.169 387.897 739.889 C 389.277 727.234 390.759 714.591 392.342 701.96 z" fill="rgb(4,58,78)" transform="translate(0,0)"></path>
<path d="M 387.157 746.506 L 594.023 758.691 C 593.983 770.774 595.17 783.095 594.656 795.136 C 526.906 789.788 453.162 787.07 384.735 783.062 C 385.078 771.381 386.311 758.261 387.157 746.506 z" fill="rgb(4,58,78)" transform="translate(0,0)"></path>
<path d="M 399.379 658.153 C 417.594 660.152 442.819 660.81 461.566 661.963 L 594.417 670.112 C 594.268 675.412 594.674 703.739 592.363 706.89 L 589.248 707.155 L 393.026 695.234 C 394.975 682.727 396.81 670.56 399.379 658.153 z" fill="rgb(4,58,78)" transform="translate(0,0)"></path>
<path d="M 408.497 614.157 C 430.719 616.716 460.369 617.779 483.069 619.162 C 520.589 621.739 558.133 623.947 595.695 625.786 C 595.237 633.496 595.924 657.712 593.199 662.833 L 590.248 663.206 C 528.028 660.75 463.154 654.151 400.346 651.845 C 403.239 639.321 405.957 626.757 408.497 614.157 z" fill="rgb(4,58,78)" transform="translate(0,0)"></path>
<path d="M 420.3 571.323 C 436.631 573.438 463.085 574.436 480.011 575.534 L 598.196 583.314 C 597.805 589.111 596.828 616.343 594.566 618.859 L 589.594 619.07 C 530.196 614.726 469.691 611.81 410.118 607.918 L 420.3 571.323 z" fill="rgb(4,58,78)" transform="translate(0,0)"></path>
<path d="M 434.741 528.007 C 490.448 532.098 546.18 535.822 601.936 539.178 C 600.246 551.333 600.079 563.032 598.517 575.098 C 596.181 576.772 592.828 576.118 589.702 575.977 C 534.057 571.762 478.046 568.812 422.331 564.989 L 434.741 528.007 z" fill="rgb(4,58,78)" transform="translate(0,0)"></path>
<path d="M 395.296 791.234 C 404.834 790.458 448.655 793.994 461.092 794.701 C 505.723 796.931 550.343 799.397 594.948 802.099 C 595.358 814.275 596.01 826.441 596.904 838.591 C 550.474 835.266 503.379 834.042 456.815 830.117 C 434.939 812.67 418.143 804.954 395.296 791.234 z" fill="rgb(4,58,78)" transform="translate(0,0)"></path>
<path d="M 451.784 484.818 C 484.806 487.141 517.843 489.24 550.894 491.116 C 568.424 503.087 586.878 519.36 603.566 533.01 C 598.436 532.43 592.928 532.122 587.752 531.738 C 537.679 528.17 487.584 524.914 437.47 521.969 C 441.949 509.076 446.642 497.451 451.784 484.818 z" fill="rgb(4,58,78)" transform="translate(0,0)"></path>
<path d="M 465.025 838.003 L 596.835 846.067 C 597.237 857.082 598.69 870.423 599.606 881.573 C 569.32 879.506 539.011 877.798 508.685 876.45 C 496.103 862.742 479.672 849.559 465.025 838.003 z" fill="rgb(4,58,78)" transform="translate(0,0)"></path>
<path d="M 468.897 444.41 C 495.214 454.046 519.533 469.034 542.853 484.349 C 538.467 484.105 533.824 483.613 529.427 483.225 L 454.498 478.134 C 458.766 467.245 464.225 455.254 468.897 444.41 z" fill="rgb(4,58,78)" transform="translate(0,0)"></path>
<path d="M 473.047 403.046 C 494.569 404.957 605.098 472.75 608.116 489.643 C 605.382 489.578 583.613 470.834 579.558 467.772 C 554.549 448.893 529.121 432.706 501.381 418.189 C 494.812 414.751 477.96 407.476 473.047 403.046 z" fill="rgb(4,58,78)" transform="translate(0,0)"></path>
<path d="M 381.266 831.783 C 381.493 831.809 381.72 831.836 381.946 831.862 C 416.851 844.163 471.779 888.401 491.723 917.256 C 489.839 916.146 472.074 898.801 468.298 895.526 C 451.349 880.823 435.275 867.653 416.436 855.323 C 409.28 850.639 384.178 837.063 381.266 831.783 z" fill="rgb(4,58,78)" transform="translate(0,0)"></path>
<path d="M 663.453 330.09 L 700.122 329.985 C 700.962 334.356 701.769 348.883 702.168 353.848 C 701.791 354.554 701.427 355.266 701.075 355.985 C 689.484 379.718 679.904 432.643 676.044 459.454 C 659.826 568.978 656.965 680.066 667.522 790.28 C 670.054 816.283 673.364 845.676 678.272 871.25 C 678.815 874.077 690.154 903.81 692.364 910.336 L 667.35 909.88 C 663.167 915.617 652.324 936.58 644.674 933.016 C 640.41 921.01 635.674 864.646 634.607 849.384 C 623.753 675.754 633.436 501.45 663.453 330.09 z" fill="rgb(243,235,200)" transform="translate(0,0)"></path>
<path d="M 702.698 104.844 C 702.907 105.941 681.511 196.238 679.384 206.473 C 661.192 294.025 642.5 381.755 633.155 470.807 C 627.31 464.035 619.899 456.669 613.626 450.138 C 624.675 366.309 643.192 283.494 660.806 200.882 C 662.917 190.982 664.944 181.123 667.192 171.247 C 660.012 178.55 652.952 185.97 646.014 193.504 C 600.585 240.368 539.987 325.231 510.969 382.768 C 501.795 378.569 492.695 374.176 483.099 371.061 C 487.866 360.407 505.617 333.497 512.224 323.627 C 566.654 243.281 630.611 169.818 702.698 104.844 z" fill="rgb(243,235,200)" transform="translate(0,0)"></path>
<path d="M 345.546 727.815 C 347.466 730.17 344.405 761.159 344.242 766.832 C 342.771 818.17 344.347 871.197 356.779 921.247 C 329.044 917.172 301.061 914 273.087 909.857 C 265.177 909.091 256.509 907.72 248.574 906.623 L 345.546 727.815 z" fill="rgb(243,235,200)" transform="translate(0,0)"></path>
<path d="M 230.981 921.278 C 236.828 920.92 289.825 928.818 299.438 930.034 C 337.102 934.694 374.894 938.261 412.764 940.731 C 552.126 949.148 691.779 951.751 831.357 948.534 C 830.411 953.767 829.675 959.598 828.889 964.904 C 828.588 965.622 828.495 966.508 827.533 966.512 C 651.812 967.383 472.674 971.35 299.381 937.662 C 280.827 934.056 247.614 928.445 230.981 921.278 z" fill="rgb(243,235,200)" transform="translate(0,0)"></path>
<path d="M 546.914 331.745 C 570.85 330.803 595.344 331.011 619.338 330.958 C 612.333 365.769 607.263 401.044 600.436 435.374 C 572.07 413.169 550.437 397.794 516.177 383.972 C 521.234 374.369 540.615 338.191 546.914 331.745 z" fill="rgb(243,235,200)" transform="translate(0,0)"></path>
<path d="M 546.914 331.745 C 551.095 327.137 566.828 301.582 573.036 293.503 C 596.31 263.213 620.067 232.418 645.929 204.25 C 638.748 246.206 626.437 288.849 619.338 330.958 C 595.344 331.011 570.85 330.803 546.914 331.745 z" fill="#5F8F94" transform="translate(0,0)"></path>
<path d="M 945.347 991.143 C 1259.69 987.707 1574.06 987.713 1888.4 991.159 C 1894.09 991.086 1899.79 991.091 1905.48 991.176 C 1911.14 990.861 1945.59 991.005 1948.59 992.277 C 1944.49 993.058 1937.59 993.818 1933.55 992.987 C 1908.73 993.424 1869.29 995.102 1845.46 993.783 C 1769.73 995.322 1689.45 994.628 1613.33 994.899 C 1394.23 995.521 1175.12 994.85 956.02 992.885 C 951.229 992.58 949.898 992.525 945.347 991.143 z" fill="rgb(243,235,200)" transform="translate(0,0)"></path>
<path d="M 1905.48 991.176 C 1911.14 990.861 1945.59 991.005 1948.59 992.277 C 1944.49 993.058 1937.59 993.818 1933.55 992.987 C 1908.73 993.424 1869.29 995.102 1845.46 993.783 C 1851.31 992.517 1888.36 992.702 1897.02 992.555 C 1893.88 992.629 1891.42 991.883 1888.4 991.159 C 1894.09 991.086 1899.79 991.091 1905.48 991.176 z" fill="rgb(155,173,164)" transform="translate(0,0)"></path>
<path d="M 1905.48 991.176 C 1911.14 990.861 1945.59 991.005 1948.59 992.277 C 1944.49 993.058 1937.59 993.818 1933.55 992.987 C 1927.21 991.553 1913.71 992.09 1905.48 991.176 z" fill="rgb(64,99,109)" transform="translate(0,0)"></path>
<path d="M 691.295 180.756 C 694.326 213.434 694.97 247.104 696.866 279.893 C 697.759 295.326 698.093 315.073 700.122 329.985 L 663.453 330.09 C 672.814 280.005 680.992 230.965 691.295 180.756 z" fill="#5F8F94" transform="translate(0,0)"></path>
<path d="M 1502.28 848.312 C 1515.15 846.82 1527.38 848.666 1540.2 850.062 C 1517.93 852.041 1499.46 852.847 1489.3 875.668 C 1496.65 875.967 1518.32 876.833 1524.5 878.458 L 1522.77 879.182 C 1503.13 881.261 1473.26 881.266 1452.7 881.929 C 1458.14 857.592 1480.55 851.93 1502.28 848.312 z" fill="rgb(243,235,200)" transform="translate(0,0)"></path>
<path d="M 1766.23 460.276 C 1767.83 460.547 1770.34 461.935 1770.96 462.896 C 1775.47 469.842 1774.27 517.929 1773.25 524.665 C 1770.55 526.246 1766.74 525.613 1763.39 525.48 C 1760.28 525.514 1758.21 525.913 1755.66 524.291 C 1754.72 517.47 1754.82 467.632 1756.9 463.242 C 1759.33 460.642 1762.67 460.697 1766.23 460.276 z" fill="rgb(243,235,200)" transform="translate(0,0)"></path>
<path d="M 1714.07 460.993 C 1717.05 460.687 1725.49 460.51 1725.84 464.256 C 1727.3 480.188 1728.7 508.992 1726.55 524.424 L 1725.11 525.423 L 1709.96 525.385 C 1710.08 508.721 1709.46 492.155 1709.56 475.526 C 1709.59 468.641 1709.26 465.59 1714.07 460.993 z" fill="rgb(243,235,200)" transform="translate(0,0)"></path>
<path d="M 1740.31 268.345 C 1748.44 270.386 1748.99 324.807 1745.96 329.553 L 1741.56 330.072 C 1738.43 330.046 1737.09 329.951 1734 329.447 C 1731.77 326.878 1732.54 313.226 1732.93 309.426 C 1734.2 297.191 1733.57 278.685 1740.31 268.345 z" fill="rgb(243,235,200)" transform="translate(0,0)"></path>
<path d="M 1736.92 361.017 C 1757.79 361.273 1762.03 380.686 1745.97 393.004 C 1725.55 395.305 1719.52 371.212 1736.92 361.017 z" fill="rgb(245,242,201)" transform="translate(0,0)"></path>
<path d="M 1737.92 371.463 C 1739.89 370.265 1742.35 370.225 1744.37 371.358 C 1746.38 372.491 1747.62 374.622 1747.62 376.931 C 1747.61 379.239 1746.36 381.366 1744.35 382.494 C 1741.31 384.195 1737.47 383.148 1735.71 380.139 C 1733.96 377.131 1734.94 373.271 1737.92 371.463 z" fill="rgb(4,58,78)" transform="translate(0,0)"></path>
<path d="M 1512.62 916.774 C 1516.77 916.635 1519.41 916.306 1523.39 917.561 C 1524.9 920.924 1524.15 957.794 1524.11 964.185 C 1520.58 964.268 1515.96 964.652 1513.11 962.876 C 1511.9 953.628 1512.59 927.315 1512.62 916.774 z" fill="rgb(243,235,200)" transform="translate(0,0)"></path>
<path d="M 1472.36 916.69 C 1476.53 916.6 1478.4 916.395 1482.42 917.544 C 1484.37 921.296 1483.69 956.793 1483.67 963.954 C 1480.25 963.996 1475.35 964.398 1472.81 962.478 C 1471.57 953.049 1472.3 927.352 1472.36 916.69 z" fill="rgb(243,235,200)" transform="translate(0,0)"></path>
<path d="M 1499.61 894.858 C 1491.12 894.991 1456.47 896.948 1450.98 892.694 C 1450.84 889.613 1450.51 890.748 1451.93 888.115 C 1465.73 884.818 1516.96 891.465 1534.52 892.28 C 1538.29 892.603 1544.7 892.957 1548.13 893.904 C 1541.04 895.267 1507.88 895.26 1499.61 894.858 z" fill="rgb(243,235,200)" transform="translate(0,0)"></path>
<path d="M 1534.52 892.28 C 1538.29 892.603 1544.7 892.957 1548.13 893.904 C 1541.04 895.267 1507.88 895.26 1499.61 894.858 C 1507.73 893.441 1523.89 894.282 1533.53 893.54 L 1534.52 892.28 z" fill="rgb(155,173,164)" transform="translate(0,0)"></path>
<path d="M 1553.33 916.833 C 1556.84 916.754 1561.17 916.412 1563.98 918.1 C 1565.14 928.7 1564.36 952.196 1564.26 963.814 C 1560.94 963.877 1556.25 964.287 1553.76 962.545 C 1552.51 953.006 1553.26 927.582 1553.33 916.833 z" fill="rgb(243,235,200)" transform="translate(0,0)"></path>
<path d="M 1742 794.366 C 1744.21 794.727 1746.58 795.475 1747.88 797.327 C 1751.72 802.826 1750.67 831.738 1749.52 837.857 L 1747.92 838.78 C 1744.71 838.731 1741.61 838.978 1738.8 837.452 C 1736.36 829.812 1738.65 807.885 1739.04 799.099 C 1739.09 798.069 1741.24 795.288 1742 794.366 z" fill="rgb(243,235,200)" transform="translate(0,0)"></path>
<path d="M 1742.25 904.444 C 1744.44 904.562 1747.38 905.689 1748.16 907.716 C 1751.33 915.943 1751.09 938.623 1749.49 946.798 L 1747.89 947.803 C 1744.37 947.828 1743.15 947.758 1739.66 947.291 C 1735.78 942.997 1736.85 910.532 1742.25 904.444 z" fill="rgb(243,235,200)" transform="translate(0,0)"></path>
<path d="M 1611.92 919.835 C 1615.64 919.769 1619.91 919.289 1623.19 920.786 C 1624.24 926.694 1623.75 948.764 1623.74 955.905 C 1620.6 956.036 1614.81 956.467 1612.37 954.911 C 1611.3 947.781 1611.88 927.927 1611.92 919.835 z" fill="rgb(243,235,200)" transform="translate(0,0)"></path>
<path d="M 1633.91 920.144 C 1637.16 919.983 1643.04 919.333 1645.45 921.245 C 1646.66 928.786 1646 947.575 1645.92 955.995 L 1633.73 955.85 L 1633.91 920.144 z" fill="rgb(243,235,200)" transform="translate(0,0)"></path>
<path d="M 1409.13 919.204 C 1411.59 919.373 1411.71 919.348 1413.86 920.479 C 1415.95 925.254 1416.15 947.339 1413.9 950.514 L 1408.19 951.239 C 1407.03 951.153 1404.38 951.043 1403.82 950.316 C 1400.35 945.756 1401.36 922.985 1403.48 920.033 L 1409.13 919.204 z" fill="rgb(243,235,200)" transform="translate(0,0)"></path>
<path d="M 1380.37 919.46 L 1392.28 919.539 C 1392.33 925.32 1393.47 947.497 1390.73 950.587 C 1387.23 950.7 1382.32 951.324 1379.49 949.687 C 1378.82 945.062 1378.11 922.742 1380.37 919.46 z" fill="rgb(243,235,200)" transform="translate(0,0)"></path>
<path d="M 1741.49 461.763 C 1746.68 466.069 1745.58 518.246 1743.83 525.289 C 1741.36 524.652 1741.16 524.669 1739.15 523.169 C 1737.93 512.055 1736.88 470.116 1741.49 461.763 z" fill="rgb(245,242,201)" transform="translate(0,0)"></path>
<path d="M 1682.46 528.916 C 1687.21 528.985 1687.17 528.17 1690.08 530.577 C 1692.59 537.971 1691.2 545.498 1690.75 553.582 C 1689.01 553.624 1685.23 553.833 1684.31 552.602 C 1681.24 548.482 1682.46 534.333 1682.46 528.916 z" fill="rgb(245,242,201)" transform="translate(0,0)"></path>
<path d="M 673.349 922.051 L 687.315 922.176 C 686.914 926.908 686.77 928.768 685.466 933.288 L 683.25 934.094 L 666.476 934.008 C 668.546 930.126 671.124 925.899 673.349 922.051 z" fill="rgb(243,235,200)" transform="translate(0,0)"></path>
<path d="M 1797.1 528.798 C 1806.12 528.855 1805.52 531.648 1805.42 540.116 C 1805.37 544.439 1805.17 548.907 1805.1 553.244 C 1800.59 552.919 1797.25 553.512 1796.86 547.908 C 1796.45 541.936 1796.99 534.828 1797.1 528.798 z" fill="rgb(245,242,201)" transform="translate(0,0)"></path>
<path d="M 1700.84 445.529 C 1707.94 445.37 1750.01 443.919 1752.97 445.976 L 1752.81 447.947 L 1750.94 448.831 C 1741.46 448.76 1704.71 448.991 1698.19 447.258 L 1698.27 446.084 L 1700.84 445.529 z" fill="rgb(245,242,201)" transform="translate(0,0)"></path>
<path d="M 1706.64 528.649 C 1711.59 528.925 1714.3 528.755 1714.47 534.748 C 1714.64 540.762 1714.24 547.562 1714.18 553.611 C 1711.89 553.585 1710.9 553.413 1708.63 553.033 C 1704.87 548.85 1706.54 535.079 1706.64 528.649 z" fill="rgb(245,242,201)" transform="translate(0,0)"></path>
<path d="M 1694.84 528.713 C 1697.16 528.673 1698.03 528.821 1700.34 529.177 C 1703.73 533.214 1702.1 547.559 1701.99 553.636 C 1699.74 553.58 1698.91 553.381 1696.69 552.926 C 1693.38 548.887 1694.8 534.797 1694.84 528.713 z" fill="rgb(245,242,201)" transform="translate(0,0)"></path>
<path d="M 749.451 922.001 L 763.921 921.99 L 761.335 933.919 L 747.304 934.011 L 749.451 922.001 z" fill="rgb(243,235,200)" transform="translate(0,0)"></path>
<path d="M 724.318 921.946 L 738.038 921.962 L 736.221 934.23 L 722.485 934.177 L 724.318 921.946 z" fill="rgb(243,235,200)" transform="translate(0,0)"></path>
<path d="M 774.265 922.07 L 788.581 922.023 C 788.247 926.041 787.512 929.868 786.82 933.836 L 772.651 934.076 C 773.036 930.288 773.746 925.899 774.265 922.07 z" fill="rgb(243,235,200)" transform="translate(0,0)"></path>
<path d="M 698.905 922.111 L 712.879 922.23 L 710.576 934.067 L 696.951 933.966 L 698.905 922.111 z" fill="rgb(243,235,200)" transform="translate(0,0)"></path>
<path d="M 1718.26 528.402 L 1722.65 528.971 C 1726.91 533.575 1725.04 547.057 1724.85 554.064 C 1723.3 553.764 1720.4 553.507 1719.71 552.533 C 1716.85 548.426 1718.19 533.531 1718.26 528.402 z" fill="rgb(245,242,201)" transform="translate(0,0)"></path>
<path d="M 1786.24 528.563 C 1790.47 529.073 1789.92 528.32 1792.29 530.83 C 1794.11 538.436 1793.05 545.53 1792.73 553.523 L 1788.84 552.752 C 1785.01 548.767 1786.29 535.014 1786.24 528.563 z" fill="rgb(245,242,201)" transform="translate(0,0)"></path>
<path d="M 1672.86 528.14 C 1676.19 528.891 1675.45 528.252 1677.68 530.312 C 1679.37 537.752 1678.76 546.063 1678.78 553.874 L 1675.01 553.112 C 1671.03 548.546 1672.71 534.991 1672.86 528.14 z" fill="rgb(245,242,201)" transform="translate(0,0)"></path>
<path d="M 956.02 992.885 C 941.358 994.275 907.262 992.667 891.126 992.234 C 897.976 990.976 937.829 990.305 945.347 991.143 C 949.898 992.525 951.229 992.58 956.02 992.885 z" fill="rgb(99,129,129)" transform="translate(0,0)"></path>
<circle cx="1190" cy="480" r="88" fill="#FF5B04"/></svg>